<svg id="Layer_1" height="512" viewBox="0 0 512 512" width="512" xmlns="http://www.w3.org/2000/svg"><g><path d="m31.05 121.053h74.983v67.471h-74.983z" fill="#f68b5b"/><path d="m106.033 196.024h-74.983c-4.142 0-7.5-3.358-7.5-7.5v-67.471c0-4.142 3.358-7.5 7.5-7.5h74.983c4.142 0 7.5 3.358 7.5 7.5v67.471c0 4.142-3.358 7.5-7.5 7.5zm-67.483-15h59.983v-52.471h-59.983z"/><path d="m106.035 121.051h149.964v67.473h-149.964z" fill="#f68b5b"/><path d="m255.999 196.024h-149.964c-4.142 0-7.5-3.358-7.5-7.5v-67.473c0-4.142 3.358-7.5 7.5-7.5h149.964c4.143 0 7.5 3.358 7.5 7.5v67.473c0 4.142-3.357 7.5-7.5 7.5zm-142.464-15h134.964v-52.473h-134.964z"/><path d="m255.999 121.051h149.968v67.473h-149.968z" fill="#f68b5b"/><path d="m405.967 196.024h-149.968c-4.142 0-7.5-3.358-7.5-7.5v-67.473c0-4.142 3.358-7.5 7.5-7.5h149.968c4.143 0 7.5 3.358 7.5 7.5v67.473c0 4.142-3.358 7.5-7.5 7.5zm-142.468-15h134.968v-52.473h-134.968z"/><path d="m405.967 121.044h74.983v67.485h-74.983z" fill="#f68b5b"/><path d="m480.95 196.029h-74.983c-4.143 0-7.5-3.358-7.5-7.5v-67.485c0-4.142 3.357-7.5 7.5-7.5h74.983c4.143 0 7.5 3.358 7.5 7.5v67.485c0 4.142-3.357 7.5-7.5 7.5zm-67.483-15h59.983v-52.485h-59.983z"/><path d="m31.054 53.578h149.965v67.473h-149.965z" fill="#f68b5b"/><path d="m181.019 128.551h-149.965c-4.142 0-7.5-3.358-7.5-7.5v-67.473c0-4.142 3.358-7.5 7.5-7.5h149.965c4.142 0 7.5 3.358 7.5 7.5v67.473c0 4.142-3.358 7.5-7.5 7.5zm-142.465-15h134.965v-52.473h-134.965z"/><path d="m181.019 53.579h149.966v67.472h-149.966z" fill="#f68b5b"/><path d="m330.984 128.551h-149.965c-4.142 0-7.5-3.358-7.5-7.5v-67.472c0-4.142 3.358-7.5 7.5-7.5h149.966c4.143 0 7.5 3.358 7.5 7.5v67.472c-.001 4.142-3.358 7.5-7.501 7.5zm-142.465-15h134.966v-52.472h-134.966z"/><path d="m330.984 53.579h149.96v67.472h-149.96z" fill="#f68b5b"/><path d="m480.944 128.551h-149.96c-4.143 0-7.5-3.358-7.5-7.5v-67.472c0-4.142 3.357-7.5 7.5-7.5h149.96c4.143 0 7.5 3.358 7.5 7.5v67.472c0 4.142-3.357 7.5-7.5 7.5zm-142.46-15h134.96v-52.472h-134.96z"/><path d="m31.05 255.996h74.983v67.472h-74.983z" fill="#f68b5b"/><path d="m106.033 330.968h-74.983c-4.142 0-7.5-3.357-7.5-7.5v-67.472c0-4.142 3.358-7.5 7.5-7.5h74.983c4.142 0 7.5 3.358 7.5 7.5v67.472c0 4.142-3.358 7.5-7.5 7.5zm-67.483-15h59.983v-52.472h-59.983z"/><path d="m106.035 255.999h149.964v67.472h-149.964z" fill="#f68b5b"/><path d="m255.999 330.971h-149.964c-4.142 0-7.5-3.357-7.5-7.5v-67.472c0-4.142 3.358-7.5 7.5-7.5h149.964c4.143 0 7.5 3.358 7.5 7.5v67.472c0 4.142-3.357 7.5-7.5 7.5zm-142.464-15h134.964v-52.473h-134.964z"/><path d="m255.999 255.999h149.968v67.472h-149.968z" fill="#f68b5b"/><path d="m405.967 330.971h-149.968c-4.142 0-7.5-3.357-7.5-7.5v-67.472c0-4.142 3.358-7.5 7.5-7.5h149.968c4.143 0 7.5 3.358 7.5 7.5v67.472c0 4.142-3.358 7.5-7.5 7.5zm-142.468-15h134.968v-52.473h-134.968z"/><path d="m405.967 256h74.983v67.472h-74.983z" fill="#f68b5b"/><path d="m480.95 330.973h-74.983c-4.143 0-7.5-3.357-7.5-7.5v-67.473c0-4.142 3.357-7.5 7.5-7.5h74.983c4.143 0 7.5 3.358 7.5 7.5v67.472c0 4.143-3.357 7.501-7.5 7.501zm-67.483-15h59.983v-52.472h-59.983z"/><path d="m31.054 188.524h149.965v67.475h-149.965z" fill="#f68b5b"/><path d="m181.019 263.499h-149.965c-4.142 0-7.5-3.358-7.5-7.5v-67.475c0-4.142 3.358-7.5 7.5-7.5h149.965c4.142 0 7.5 3.358 7.5 7.5v67.475c0 4.142-3.358 7.5-7.5 7.5zm-142.465-15h134.965v-52.475h-134.965z"/><path d="m181.019 188.527h149.966v67.472h-149.966z" fill="#f68b5b"/><path d="m330.984 263.499h-149.965c-4.142 0-7.5-3.358-7.5-7.5v-67.472c0-4.142 3.358-7.5 7.5-7.5h149.966c4.143 0 7.5 3.358 7.5 7.5v67.472c-.001 4.142-3.358 7.5-7.501 7.5zm-142.465-15h134.966v-52.472h-134.966z"/><path d="m330.984 188.527h149.96v67.472h-149.96z" fill="#f68b5b"/><path d="m480.944 263.499h-149.96c-4.143 0-7.5-3.358-7.5-7.5v-67.472c0-4.142 3.357-7.5 7.5-7.5h149.96c4.143 0 7.5 3.358 7.5 7.5v67.472c0 4.142-3.357 7.5-7.5 7.5zm-142.46-15h134.96v-52.472h-134.96z"/><path d="m31.05 390.938h74.983v67.483h-74.983z" fill="#f68b5b"/><path d="m106.033 465.922h-74.983c-4.142 0-7.5-3.357-7.5-7.5v-67.483c0-4.143 3.358-7.5 7.5-7.5h74.983c4.142 0 7.5 3.357 7.5 7.5v67.483c0 4.142-3.358 7.5-7.5 7.5zm-67.483-15h59.983v-52.483h-59.983z"/><path d="m106.035 390.944h149.964v67.476h-149.964z" fill="#f68b5b"/><path d="m255.999 465.92h-149.964c-4.142 0-7.5-3.357-7.5-7.5v-67.476c0-4.143 3.358-7.5 7.5-7.5h149.964c4.143 0 7.5 3.357 7.5 7.5v67.476c0 4.143-3.357 7.5-7.5 7.5zm-142.464-15h134.964v-52.476h-134.964z"/><path d="m255.999 390.944h149.968v67.476h-149.968z" fill="#f68b5b"/><path d="m405.967 465.92h-149.968c-4.142 0-7.5-3.357-7.5-7.5v-67.476c0-4.143 3.358-7.5 7.5-7.5h149.968c4.143 0 7.5 3.357 7.5 7.5v67.476c0 4.143-3.358 7.5-7.5 7.5zm-142.468-15h134.968v-52.476h-134.968z"/><path d="m405.967 390.942h74.983v67.472h-74.983z" fill="#f68b5b"/><path d="m480.95 465.914h-74.983c-4.143 0-7.5-3.357-7.5-7.5v-67.472c0-4.143 3.357-7.5 7.5-7.5h74.983c4.143 0 7.5 3.357 7.5 7.5v67.472c0 4.143-3.357 7.5-7.5 7.5zm-67.483-15h59.983v-52.472h-59.983z"/><path d="m31.054 323.471h149.965v67.474h-149.965z" fill="#f68b5b"/><path d="m181.019 398.444h-149.965c-4.142 0-7.5-3.357-7.5-7.5v-67.474c0-4.143 3.358-7.5 7.5-7.5h149.965c4.142 0 7.5 3.357 7.5 7.5v67.474c0 4.143-3.358 7.5-7.5 7.5zm-142.465-15h134.965v-52.474h-134.965z"/><path d="m181.019 323.474h149.966v67.471h-149.966z" fill="#f68b5b"/><path d="m330.984 398.444h-149.965c-4.142 0-7.5-3.357-7.5-7.5v-67.471c0-4.143 3.358-7.5 7.5-7.5h149.966c4.143 0 7.5 3.357 7.5 7.5v67.471c-.001 4.143-3.358 7.5-7.501 7.5zm-142.465-15h134.966v-52.471h-134.966z"/><path d="m330.984 323.474h149.96v67.471h-149.96z" fill="#f68b5b"/><path d="m480.944 398.444h-149.96c-4.143 0-7.5-3.357-7.5-7.5v-67.471c0-4.143 3.357-7.5 7.5-7.5h149.96c4.143 0 7.5 3.357 7.5 7.5v67.471c0 4.143-3.357 7.5-7.5 7.5zm-142.46-15h134.96v-52.471h-134.96z"/></g></svg>